<svg xmlns="http://www.w3.org/2000/svg" viewBox="0 0 303 80.86"><path d="M0,40.43A40.43,40.43,0,1,1,40.43,80.86,40.43,40.43,0,0,1,0,40.43Z" style="fill:#e30613;fill-rule:evenodd"/><path d="M303,38.23V36.36h-4.48V24.61h-1.94V38.23Zm-12.11-5.29h-3.28l1.2-3.66c.21-.64.38-1.18.49-1.66.09.44.26,1,.46,1.68Zm4,5.29L290,24.57h-1.35L283.9,38.23h1.94L287,34.75h4.54l1.23,3.48Zm-12.7,0V24.61h-2v8.2c0,.66,0,1.35,0,1.9-.31-.55-.65-1.07-1.32-2.05l-5.54-8h-2V38.23h1.93V29.67c0-.66,0-1.32,0-1.78.33.56.67,1.1,1.26,2l5.77,8.38Zm-15.1-6.74c0,3.16-1.66,5.11-4.11,5.11s-4.12-2-4.12-5.11,1.65-5.13,4.12-5.13S267.06,28.43,267.06,31.49Zm2.08,0a7.6,7.6,0,0,0-1.54-4.84,6,6,0,0,0-9.09-.14,7.54,7.54,0,0,0-1.75,5.06,7.42,7.42,0,0,0,1.93,5.23,6.19,6.19,0,0,0,8.69-.23A7.48,7.48,0,0,0,269.14,31.45Zm-14.65,6.78V24.61h-2V38.23Zm-4-1-.56-1.61a5.65,5.65,0,0,1-3,.89c-2.64,0-4.24-2.17-4.24-5.11,0-2.76,1.56-5.08,4.37-5.08a5.19,5.19,0,0,1,3.1,1l.05-2.07a6.4,6.4,0,0,0-3.16-.77c-3.91,0-6.48,3.14-6.48,7.09s2.26,6.86,6.06,6.86A6.75,6.75,0,0,0,250.46,37.23Zm-14.53-4.29h-3.29l1.21-3.66c.21-.64.37-1.18.49-1.66.09.44.26,1,.46,1.68Zm4,5.29L235,24.57h-1.35l-4.75,13.66h1.94L232,34.75h4.54l1.23,3.48Zm-12.71,0V24.61h-1.95v8.2c0,.66,0,1.35,0,1.9-.32-.55-.65-1.07-1.32-2.05l-5.54-8h-2V38.23h1.93V29.67c0-.66,0-1.32,0-1.78.33.56.66,1.1,1.26,2l5.77,8.38Zm-19.78-6.74c0,3.16-1.65,5.11-4.11,5.11s-4.13-2-4.13-5.11,1.66-5.13,4.13-5.13S207.41,28.43,207.41,31.49Zm2.09,0A7.55,7.55,0,0,0,208,26.61a6,6,0,0,0-9.09-.14,7.59,7.59,0,0,0-1.75,5.06,7.38,7.38,0,0,0,1.94,5.23,5.88,5.88,0,0,0,4.25,1.67,5.8,5.8,0,0,0,4.43-1.9A7.48,7.48,0,0,0,209.5,31.45Zm-14.66,6.78V24.61h-2V38.23Zm-7.08-9.59A2.27,2.27,0,0,1,185.57,31h-1.16V26.49h1.12A2,2,0,0,1,187.76,28.64Zm3.4,9.59c-1.91-3.5-3.22-5.91-3.71-6.2a3.89,3.89,0,0,0,2.3-3.62c0-2.09-1.17-3.8-4.24-3.8h-3V38.23h1.95V32.71h1.14c.48.14,1.43,2,3.35,5.52Zm-13.07-6.74c0,3.16-1.65,5.11-4.11,5.11s-4.1-2-4.1-5.11,1.65-5.13,4.1-5.13S178.09,28.43,178.09,31.49Zm2.1,0a7.66,7.66,0,0,0-1.54-4.84A5.85,5.85,0,0,0,174,24.48a5.77,5.77,0,0,0-4.44,2,7.54,7.54,0,0,0-1.75,5.06,7.36,7.36,0,0,0,1.91,5.23A5.9,5.9,0,0,0,174,38.43a5.77,5.77,0,0,0,4.41-1.9A7.49,7.49,0,0,0,180.19,31.45ZM176.94,20.8h-2.33L173,23.85h1.59Zm-10.37,5.67V24.61h-9.15v1.86H161V38.23h2V26.47Zm-12.52,6.47h-3.29L152,29.28c.2-.64.37-1.18.48-1.66.09.44.26,1,.47,1.68Zm4,5.29-4.86-13.66H151.8l-4.74,13.66H149l1.16-3.48h4.53l1.23,3.48Zm-14.93-9.59A2.27,2.27,0,0,1,140.89,31h-1.15V26.49h1.11A2,2,0,0,1,143.08,28.64Zm3.4,9.59c-1.91-3.5-3.21-5.91-3.71-6.2a3.89,3.89,0,0,0,2.3-3.62c0-2.09-1.17-3.8-4.24-3.8h-3.05V38.23h2V32.71h1.13c.48.14,1.43,2,3.34,5.52Zm-13-6.74c0,3.16-1.65,5.11-4.11,5.11s-4.13-2-4.13-5.11,1.66-5.13,4.13-5.13S133.43,28.43,133.43,31.49Zm2.08,0A7.54,7.54,0,0,0,134,26.61a6,6,0,0,0-9.09-.14,7.54,7.54,0,0,0-1.75,5.06,7.37,7.37,0,0,0,1.93,5.23,5.9,5.9,0,0,0,4.26,1.67,5.78,5.78,0,0,0,4.42-1.9A7.43,7.43,0,0,0,135.51,31.45Zm-16,2.75c0,1.3-.8,2.16-2.38,2.16h-1.56V32.21h1.66A2,2,0,0,1,119.52,34.2Zm-.74-5.83a1.86,1.86,0,0,1-1.8,2h-1.4V26.49h1.25A1.73,1.73,0,0,1,118.78,28.37Zm2.77,5.8a3.29,3.29,0,0,0-2.34-3.3A3.16,3.16,0,0,0,120.77,28a3.24,3.24,0,0,0-3.42-3.35h-3.72V38.23h3.61A3.93,3.93,0,0,0,121.55,34.17Zm-13.61-1.23h-3.29l1.21-3.66c.2-.64.37-1.18.48-1.66.09.44.26,1,.46,1.68Zm4,5.29-4.85-13.66h-1.36L101,38.23h1.93L104,34.75h4.54l1.23,3.48Zm-11.55,0V36.36H95.87V24.61H93.94V38.23ZM273.53,56.82V55H269V43.2h-1.93V56.82Zm-9.32,0V43.2h-1.95V56.82ZM260.53,43.2h-2l-3.08,8.21c-.32.82-.56,1.55-.77,2.27-.27-.74-.51-1.53-.8-2.31l-2.82-8.17h-2.12l4.94,13.71h1.33ZM247.22,56.82V43.2h-2V56.82Zm-4-1-.55-1.61a5.65,5.65,0,0,1-3,.89c-2.64,0-4.24-2.17-4.24-5.11,0-2.77,1.56-5.08,4.37-5.08a5.23,5.23,0,0,1,3.11,1l0-2.06a6.27,6.27,0,0,0-3.17-.77c-3.91,0-6.47,3.14-6.47,7.08S235.56,57,239.37,57A6.8,6.8,0,0,0,243.18,55.83Zm-19.61-4.3h-3.29l1.21-3.65c.2-.65.37-1.18.48-1.66.09.43.26,1,.46,1.67Zm4,5.29-4.85-13.66h-1.36l-4.74,13.66h1.93l1.15-3.47h4.54l1.23,3.47Zm-12.7,0V43.2h-2V56.82Zm-7.08-9.59a2.27,2.27,0,0,1-2.2,2.38H204.4V45.08h1.11A2,2,0,0,1,207.75,47.23Zm3.4,9.59c-1.91-3.49-3.22-5.91-3.72-6.2A3.86,3.86,0,0,0,209.74,47c0-2.09-1.17-3.81-4.24-3.81h-3.05V56.82h2V51.3h1.14c.48.15,1.43,2,3.34,5.52Zm-14.39-5.29h-3.29l1.2-3.65c.21-.65.38-1.18.49-1.66.09.43.26,1,.47,1.67Zm4,5.29-4.86-13.66h-1.35l-4.74,13.66h1.93l1.15-3.47h4.54l1.23,3.47Zm-12.7,0V43.2h-2V49h-6.19V43.2h-2V56.82h2v-6h6.19v6Zm-13,0V43.2h-2v8.21c0,.66,0,1.34,0,1.9-.31-.56-.65-1.08-1.31-2.05l-5.55-8.06h-2V56.82h1.94V48.27c0-.67,0-1.32,0-1.78.33.56.67,1.1,1.26,2l5.77,8.37Zm-13.14,0V55h-4.62V50.79h4V48.93h-4V45.07h4l.6-1.87h-6.55V56.82Zm-9.28-1V50h-1.95v4.69a4.12,4.12,0,0,1-2.07.46C145.77,55.19,144,53,144,50c0-2.83,1.51-5.06,4.69-5.06a6.79,6.79,0,0,1,3.4,1l0-2.08a8.36,8.36,0,0,0-3.55-.77c-4,0-6.66,3-6.66,7.11,0,3.92,2.4,6.84,6.14,6.84A9.14,9.14,0,0,0,152.6,55.83Zm-12.92,1V43.2h-2v8.21c0,.66,0,1.34,0,1.9-.32-.56-.65-1.08-1.32-2.05L130.9,43.2h-2V56.82h1.93V48.27c0-.67,0-1.32,0-1.78.34.56.67,1.1,1.27,2l5.76,8.37Zm-13.15,0V55h-4.61V50.79h4V48.93h-4V45.07h4l.59-1.87H120V56.82Zm-13.65,0V55h-4.61V50.79h4V48.93h-4V45.07h4l.6-1.87h-6.55V56.82ZM102,49.92c0,2.67-1.27,5-4.67,5H95.89V45.08h1.43C100.49,45.08,102,47.15,102,49.92Zm2.07,0c0-3.91-2.24-6.68-6.76-6.68H93.94V56.82h3.29C101.65,56.82,104.06,53.87,104.06,49.88Z" style="fill:#4a4a49;fill-rule:evenodd"/><polygon points="29.75 29.44 21.67 49.17 29.77 49.17 29.77 51.42 18.5 51.42 27.5 29.44 29.75 29.44" style="fill:#fff;fill-rule:evenodd"/><polygon points="61.51 51.42 49.12 51.42 49.12 29.44 61.51 29.44 61.51 32.59 52.27 32.59 52.27 39.16 59.76 39.16 59.76 41.7 52.27 41.7 52.27 48.27 61.51 48.27 61.51 51.42" style="fill:#fff;fill-rule:evenodd"/><polygon points="61.51 39.16 75.28 29.44 75.28 33.28 65.35 40.43 75.28 47.58 75.28 51.42 61.51 41.7 61.51 39.16" style="fill:#fff;fill-rule:evenodd"/><rect x="45.07" y="29.44" width="2.25" height="21.98" style="fill:#fff"/><polygon points="45.07 51.42 42.82 51.42 33.82 29.44 36.07 29.44 45.07 51.42" style="fill:#fff;fill-rule:evenodd"/><rect x="31.57" y="29.44" width="2.25" height="21.98" style="fill:#fff"/></svg>